<?xml version="1.0" standalone="no"?>
<!DOCTYPE svg PUBLIC "-//W3C//DTD SVG 20010904//EN"
 "http://www.w3.org/TR/2001/REC-SVG-20010904/DTD/svg10.dtd">
<svg version="1.0" xmlns="http://www.w3.org/2000/svg"
 width="401.000000pt" height="500.000000pt" viewBox="0 0 401.000000 500.000000"
 preserveAspectRatio="xMidYMid meet">

<g transform="translate(0.000000,500.000000) scale(0.100000,-0.100000)"
fill="#000000" stroke="none">
<path d="M2246 4179 c-21 -5 -52 -20 -68 -34 -16 -14 -33 -25 -36 -25 -9 0
-65 -52 -92 -87 l-22 -28 -186 -1 c-129 -1 -209 -7 -257 -18 -38 -8 -80 -13
-92 -10 -13 4 -23 2 -23 -4 0 -9 -40 -22 -85 -27 -74 -9 -315 -106 -315 -127
0 -4 -7 -5 -15 -2 -18 7 -94 -29 -129 -61 -14 -13 -35 -26 -46 -30 -27 -8 -54
-50 -44 -67 6 -10 4 -10 -9 1 -15 12 -22 8 -58 -25 -130 -122 -206 -210 -266
-307 -10 -16 -44 -64 -75 -107 -58 -80 -92 -137 -93 -155 -1 -5 -13 -34 -28
-62 -15 -29 -27 -55 -27 -58 0 -3 -1 -8 -1 -12 -1 -5 -1 -16 0 -25 1 -10 -2
-18 -7 -18 -5 0 -12 -10 -15 -22 -3 -13 -10 -41 -16 -62 -6 -26 -6 -46 0 -58
6 -12 6 -18 -1 -18 -5 0 -10 -4 -10 -10 0 -19 32 -10 37 10 3 11 8 20 12 20 4
0 7 9 8 21 2 28 33 122 44 134 5 5 9 17 9 26 0 32 77 195 131 276 45 68 139
190 178 232 17 18 31 34 31 35 0 0 28 31 63 67 88 94 211 194 287 235 147 78
383 160 495 171 28 3 82 10 120 16 39 7 128 12 200 12 153 0 157 -3 102 -87
-44 -68 -128 -238 -117 -238 4 0 25 33 45 73 54 105 123 217 158 257 17 19 28
27 24 18 -8 -23 14 -35 94 -47 117 -19 216 -49 330 -101 63 -28 123 -54 134
-57 32 -9 -19 27 -90 64 -81 42 -333 123 -384 123 -43 0 -71 11 -71 29 0 16
54 81 68 81 4 0 22 15 41 32 35 33 136 64 155 47 9 -8 36 -1 36 10 0 11 -78
11 -124 0z"/>
<path d="M1388 3795 c-4 -4 -18 -9 -30 -10 -37 -4 -38 -4 -38 -18 0 -13 -26
-25 -98 -47 -29 -9 -48 -23 -61 -44 -25 -41 -58 -179 -44 -183 6 -2 5 -20 -5
-50 -12 -35 -13 -48 -4 -51 15 -5 16 -29 1 -34 -5 -2 -40 -1 -77 3 -62 5 -94
4 -192 -6 -73 -8 -97 -18 -164 -63 -56 -38 -72 -55 -86 -91 -17 -44 -50 -76
-50 -48 0 8 -7 20 -15 27 -20 17 -20 -3 0 -60 8 -23 15 -66 15 -95 0 -30 4
-55 8 -57 4 -1 27 -52 51 -113 41 -105 154 -318 190 -360 26 -30 44 -82 36
-102 -5 -10 -7 -21 -7 -25 1 -5 -4 -7 -10 -5 -7 1 -17 -13 -22 -30 -6 -18 -14
-33 -18 -33 -4 0 -8 -5 -8 -10 0 -6 -10 -27 -23 -48 -33 -53 -67 -140 -67
-172 0 -15 -9 -39 -20 -53 -11 -14 -22 -40 -24 -59 -3 -18 -6 -33 -7 -33 -6 0
-14 -105 -10 -120 2 -5 3 -25 2 -43 l-1 -33 -29 17 c-17 10 -28 21 -26 25 3 3
-10 26 -28 50 -61 81 -149 243 -178 328 -22 64 -34 337 -20 466 4 44 5 86 1
94 -10 19 -21 -155 -19 -299 1 -130 -4 -160 -15 -83 -4 26 -9 55 -11 63 -5 25
-13 73 -21 130 -7 50 -8 52 -15 25 -4 -16 -11 -40 -14 -52 -6 -17 -3 -23 9
-23 22 0 21 -17 -1 -23 -17 -4 -17 -5 0 -6 16 -1 17 -3 4 -16 -12 -11 -13 -24
-6 -57 5 -24 12 -50 16 -58 3 -8 5 -21 4 -29 -4 -23 20 -101 50 -167 16 -34
29 -67 29 -73 0 -6 5 -11 10 -11 6 0 15 -11 20 -25 5 -13 33 -64 62 -112 29
-49 60 -101 68 -117 8 -15 26 -38 41 -50 35 -30 49 -57 49 -98 1 -18 7 -58 14
-89 13 -54 13 -56 -5 -52 -25 7 -25 -19 1 -42 11 -10 34 -55 51 -101 17 -46
36 -84 40 -84 5 0 9 -7 9 -15 0 -8 5 -15 10 -15 6 0 10 -7 10 -16 0 -8 5 -12
11 -8 7 4 9 -2 7 -16 -2 -13 2 -25 9 -27 9 -3 10 4 4 25 -12 40 -30 72 -41 72
-9 0 -34 100 -26 107 2 3 31 -4 63 -16 32 -11 93 -23 135 -26 54 -5 85 -13
102 -26 29 -23 48 -25 40 -4 -4 9 3 16 20 21 41 10 30 19 -25 21 -28 1 -62 9
-76 18 -34 23 -181 169 -229 229 -21 27 -49 60 -62 75 -21 23 -23 33 -17 94 4
51 3 67 -7 67 -10 0 -10 2 -1 8 6 4 14 21 18 37 10 48 27 108 36 130 5 11 16
43 25 70 29 88 112 261 142 293 18 20 35 10 82 -50 79 -101 115 -143 191 -218
84 -84 139 -133 139 -124 0 3 -48 60 -107 128 -168 191 -247 286 -257 307 -10
20 16 59 39 59 10 0 55 -52 55 -64 0 -12 229 -236 266 -260 49 -32 58 -64 38
-140 -7 -28 -15 -91 -18 -141 -3 -49 -8 -130 -12 -180 -9 -114 -9 -205 -1
-275 4 -30 11 -98 16 -150 5 -52 16 -120 25 -150 9 -30 17 -68 18 -85 2 -16
11 -38 20 -47 10 -10 18 -24 18 -32 0 -31 87 -197 119 -227 11 -10 28 -32 37
-49 10 -16 22 -30 26 -30 4 0 8 -4 8 -8 0 -5 -30 -22 -67 -37 -38 -16 -104
-48 -148 -71 -93 -50 -95 -50 -435 -64 -346 -15 -320 -13 -308 -28 14 -17 384
-6 472 13 59 13 113 4 100 -16 -8 -13 3 -11 44 10 20 10 48 20 62 21 42 4 116
-1 103 -7 -28 -11 -10 -23 34 -23 30 0 53 6 66 17 11 10 17 12 13 6 -5 -9 1
-13 18 -13 15 0 25 5 23 12 -5 24 214 51 228 28 5 -8 11 -7 21 1 8 7 14 7 14
1 0 -16 58 -20 65 -4 8 20 7 22 -10 16 -8 -4 -15 -1 -15 5 0 6 -7 11 -16 11
-8 0 -12 5 -9 11 9 13 -128 10 -165 -4 -14 -5 -47 -11 -75 -13 -27 -2 -71 -9
-97 -15 -47 -11 -103 -5 -113 11 -13 21 278 140 341 140 19 0 53 13 81 30 26
16 77 36 113 45 76 18 97 24 255 69 156 44 160 45 176 36 19 -12 -9 -50 -111
-150 -109 -108 -152 -137 -220 -150 -30 -6 -56 -15 -58 -20 -2 -6 -17 -10 -33
-10 -16 0 -29 -5 -29 -10 0 -19 25 -21 63 -5 20 8 47 15 59 14 13 0 -11 -13
-52 -28 -41 -16 -77 -27 -80 -26 -3 2 -40 6 -82 9 -84 6 -107 -7 -33 -18 25
-4 45 -11 45 -15 0 -4 -16 -13 -35 -20 -81 -29 -1 -42 105 -17 30 7 61 11 67
9 8 -3 -3 -27 -33 -69 -54 -76 -53 -98 0 -27 129 170 241 239 437 267 113 17
146 29 121 45 -8 5 22 21 83 45 63 25 95 43 95 53 0 24 -50 12 -206 -52 -77
-32 -168 -68 -202 -81 l-64 -24 39 36 c66 63 146 120 218 157 39 19 104 55
145 79 41 25 102 57 135 73 33 15 85 40 117 55 31 15 72 30 92 34 19 4 41 13
48 20 13 12 61 28 152 49 39 9 50 9 54 -1 6 -20 32 -14 32 8 0 27 -22 34 -63
21 -19 -7 -43 -13 -53 -15 -10 -3 -32 -10 -49 -17 -16 -7 -34 -11 -39 -10 -4
1 -13 -2 -20 -7 -6 -6 -26 -13 -43 -17 -18 -3 -61 -20 -95 -37 -206 -99 -276
-135 -350 -180 -94 -58 -209 -120 -213 -116 -2 2 3 9 11 16 8 7 14 10 14 7 0
-13 39 35 45 57 12 38 55 88 76 88 14 0 19 7 19 29 0 15 11 44 24 64 13 19 27
46 31 58 10 33 25 49 44 49 14 0 17 7 13 29 -3 21 4 40 22 64 14 19 26 41 26
49 0 8 13 46 28 84 15 38 34 89 42 114 8 25 22 58 31 74 l18 29 5 -34 c4 -19
6 -43 6 -54 1 -138 -2 -154 -34 -181 -24 -21 -24 -22 -4 -27 17 -5 19 -11 15
-34 -6 -28 -6 -28 4 -3 6 14 20 43 31 65 14 26 17 40 9 43 -17 6 -13 68 6 87
12 12 26 15 52 10 20 -3 46 -7 58 -8 20 -2 21 -3 5 -22 -9 -11 -21 -23 -27
-27 -6 -5 -6 -8 1 -8 6 0 23 9 36 20 24 18 78 34 106 31 58 -8 148 7 207 34
55 26 95 56 95 72 0 20 -14 16 -41 -13 -31 -33 -78 -54 -160 -68 -65 -12 -119
-5 -119 16 0 5 -7 2 -17 -7 -17 -17 -50 -17 -153 2 -41 7 -45 11 -55 48 -6 22
-10 76 -10 120 1 76 13 133 75 360 13 50 16 73 8 83 -8 9 -7 11 4 7 11 -5 14
3 13 35 -1 22 2 40 6 40 14 0 21 60 9 75 -10 12 -7 21 16 49 44 52 51 51 88
-7 18 -28 45 -63 58 -77 14 -14 31 -36 38 -49 6 -13 27 -44 46 -68 19 -25 37
-55 40 -69 3 -13 10 -24 14 -24 20 0 136 -273 124 -292 -3 -4 2 -8 12 -8 13 0
15 6 9 33 -3 17 -8 39 -9 47 -2 8 2 21 8 29 9 12 8 14 -5 9 -12 -5 -27 16 -62
86 -81 157 -132 240 -230 369 -39 51 -57 84 -54 97 3 12 0 17 -9 13 -14 -5
-184 160 -184 180 0 17 19 127 26 157 4 14 8 45 9 70 2 25 5 52 8 60 15 42 18
93 5 101 -11 7 -11 9 0 9 7 0 10 5 7 10 -3 6 -3 16 2 23 10 15 11 317 1 317
-5 0 -8 9 -8 20 0 11 4 20 10 20 10 0 7 60 -4 79 -19 31 -23 -6 -24 -206 0
-250 -4 -346 -14 -353 -3 -3 -9 -39 -12 -80 -8 -97 -28 -192 -42 -197 -6 -2
-29 15 -50 38 -22 22 -59 55 -84 72 -25 17 -59 45 -77 61 -18 17 -48 44 -68
59 -19 16 -35 35 -35 43 0 21 -102 215 -116 221 -7 3 -11 10 -8 17 5 13 -51
117 -80 149 -9 9 -16 19 -16 22 0 5 -64 99 -100 147 l-21 27 23 15 c13 8 86
35 163 60 140 47 194 73 125 62 -42 -6 -197 -59 -259 -87 -53 -24 -84 -19
-108 19 -39 60 -221 245 -234 237 -5 -4 -9 0 -9 8 0 14 -57 57 -92 70 -10 3
-18 10 -18 15 0 5 -23 19 -51 32 -52 22 -188 39 -201 25z m197 -49 c98 -47
205 -134 205 -168 0 -10 5 -15 13 -12 13 5 109 -90 162 -159 20 -28 26 -43 19
-53 -17 -26 -304 -164 -341 -164 -29 0 -33 -3 -28 -19 4 -15 -1 -24 -22 -37
-48 -30 -138 -89 -143 -94 -3 -3 -28 -23 -57 -43 -29 -21 -63 -51 -77 -68 -14
-16 -27 -28 -30 -27 -2 2 -14 -6 -25 -16 -30 -27 -45 -9 -59 73 -6 36 -16 67
-21 70 -5 4 -10 24 -9 46 0 22 -5 53 -11 68 -6 16 -11 60 -11 98 0 69 0 69 28
69 31 -1 123 -22 166 -39 16 -7 35 -10 43 -7 7 3 13 2 13 -3 0 -5 12 -12 27
-16 15 -3 52 -17 81 -31 54 -25 92 -31 92 -15 0 10 -9 13 -184 76 -70 25 -151
50 -179 56 -62 11 -70 19 -69 59 2 81 62 260 87 260 6 0 18 11 25 25 7 14 18
25 25 25 6 0 31 -20 55 -45 46 -47 60 -54 60 -31 0 18 -66 76 -85 76 -20 0
-19 24 1 41 57 47 155 49 249 5z m-374 -82 c-12 -19 -21 -41 -21 -48 0 -8 -7
-19 -15 -26 -8 -7 -15 -10 -15 -6 0 15 32 82 47 98 25 28 27 21 4 -18z m-41
-104 c0 -5 -4 -10 -10 -10 -5 0 -10 5 -10 10 0 6 5 10 10 10 6 0 10 -4 10 -10z
m-10 -34 c0 -3 -4 -8 -10 -11 -5 -3 -10 -1 -10 4 0 6 5 11 10 11 6 0 10 -2 10
-4z m-62 -199 c7 -5 11 -38 11 -92 0 -47 2 -89 5 -94 3 -5 8 -24 10 -42 4 -28
35 -157 61 -254 3 -14 -6 -32 -30 -57 -19 -21 -40 -38 -45 -38 -6 0 -10 -5
-10 -12 0 -7 -22 -33 -50 -59 -27 -26 -50 -50 -50 -54 0 -3 -13 -17 -29 -31
-17 -14 -33 -34 -36 -45 -10 -29 -35 -20 -67 26 -65 92 -159 235 -181 276 -13
24 -38 69 -55 101 -38 70 -46 110 -33 170 26 117 89 173 221 201 67 14 256 17
278 4z m962 -42 c0 -6 11 -22 25 -35 14 -13 25 -28 25 -33 0 -5 12 -26 28 -46
15 -20 38 -56 51 -81 13 -25 31 -53 39 -62 12 -14 12 -20 2 -33 -7 -8 -9 -15
-4 -15 5 0 4 -4 -3 -8 -11 -7 -13 -46 -13 -202 1 -244 -39 -380 -139 -475
l-31 -29 -21 20 c-47 47 -44 154 5 238 38 65 62 62 73 -6 10 -64 27 -69 31
-11 7 91 -49 136 -112 88 -43 -33 -55 -66 -63 -175 -5 -74 -3 -93 15 -133 20
-45 23 -48 57 -45 20 1 39 6 41 10 3 5 9 6 14 3 14 -9 81 75 112 141 32 69 67
221 69 299 0 55 8 79 25 82 18 3 149 -129 138 -140 -7 -7 18 -67 28 -67 6 0 8
-7 4 -15 -5 -15 51 -205 64 -215 4 -3 10 -18 13 -35 4 -16 16 -61 28 -100 54
-183 52 -167 33 -202 -10 -20 -34 -41 -60 -53 -23 -12 -59 -34 -80 -51 -21
-16 -48 -32 -61 -35 -12 -4 -23 -10 -23 -15 0 -5 -7 -9 -15 -9 -9 0 -18 -7
-21 -15 -4 -8 -12 -15 -19 -15 -13 0 -147 -78 -173 -100 -7 -6 -17 -8 -22 -5
-5 3 -28 -8 -52 -25 -28 -20 -51 -30 -70 -28 -15 2 -26 -1 -25 -5 3 -11 -82
-64 -114 -72 -17 -4 -31 -2 -38 7 -28 32 -131 179 -145 207 -17 33 -23 67 -7
42 5 -7 14 -10 20 -7 7 5 -2 17 -25 32 -60 41 -82 76 -180 292 -36 77 -30 102
6 27 12 -25 26 -43 31 -39 10 6 -5 38 -68 142 -37 60 -44 81 -42 115 1 23 7
47 12 54 5 7 6 16 3 21 -6 10 16 97 31 127 6 11 13 37 17 58 10 52 -10 48 -24
-5 -6 -24 -14 -50 -17 -58 -3 -8 -5 -19 -4 -24 1 -5 -5 -17 -14 -26 -9 -10
-18 -39 -20 -65 -1 -25 -5 -49 -9 -52 -8 -8 -41 71 -72 175 -14 48 -35 106
-45 129 -32 73 -27 93 44 158 34 32 71 64 83 71 12 6 50 34 86 61 35 28 78 57
94 66 16 8 39 25 51 36 23 22 77 28 88 11 3 -6 23 -19 43 -29 20 -10 57 -29
82 -42 25 -13 47 -27 48 -31 2 -5 22 -18 45 -29 37 -20 91 -52 188 -116 19
-13 44 -23 54 -23 18 0 17 1 -3 20 -38 36 -114 79 -128 73 -9 -3 -12 0 -9 8 5
13 -72 69 -95 69 -5 0 -28 13 -52 29 -24 15 -70 43 -103 61 -33 18 -64 35 -68
37 -16 10 17 33 126 89 152 77 177 86 200 66 9 -8 17 -20 17 -27z m224 -367
c9 -17 16 -36 16 -41 0 -6 8 -20 19 -31 10 -12 22 -31 26 -43 5 -19 3 -22 -12
-16 -10 4 -24 12 -30 19 -7 7 -17 14 -22 16 -10 3 -28 128 -18 128 3 0 13 -14
21 -32z m-1600 -123 c3 -8 1 -15 -3 -15 -5 0 -11 7 -15 15 -3 8 -1 15 3 15 5
0 11 -7 15 -15z m562 -130 c9 -27 22 -61 29 -75 7 -14 18 -41 25 -60 7 -19 23
-65 36 -102 22 -59 24 -73 15 -135 -15 -107 -31 -163 -47 -163 -8 0 -14 4 -14
8 0 5 -17 21 -37 35 -56 40 -269 255 -289 293 -17 31 -17 33 2 63 11 17 67 80
124 141 l104 110 18 -32 c9 -18 25 -55 34 -83z m-516 58 c0 -7 4 -13 8 -13 5
0 17 -16 28 -35 10 -19 22 -35 26 -35 5 0 8 -6 8 -14 0 -8 7 -16 15 -20 8 -3
15 -11 15 -18 0 -7 14 -27 30 -45 34 -37 33 -33 19 -70 l-10 -28 -20 25 c-11
14 -24 34 -30 45 -5 11 -18 34 -29 50 -11 17 -26 44 -34 60 -9 17 -20 37 -25
45 -15 24 -41 82 -41 93 0 6 9 2 20 -8 11 -10 20 -24 20 -32z m1761 -101 c15
-9 62 -48 104 -87 43 -38 82 -72 87 -74 20 -7 26 -48 13 -92 -7 -24 -18 -66
-24 -94 -19 -86 -44 -165 -52 -165 -4 0 -11 15 -14 33 -4 17 -11 37 -15 42 -4
6 -10 28 -13 50 -7 46 -80 271 -100 313 -17 33 -29 92 -19 92 4 0 19 -8 33
-18z m286 -259 c85 -92 112 -143 74 -143 -11 0 -23 -9 -26 -21 -4 -12 -17 -31
-28 -42 -20 -20 -20 -22 -4 -25 9 -2 17 -12 17 -21 0 -33 -83 -382 -96 -403
-3 -4 -11 -5 -19 -2 -12 5 -12 0 -5 -27 8 -26 4 -54 -16 -129 -64 -236 -156
-463 -179 -442 -4 4 -6 -3 -3 -15 6 -24 -12 -37 -47 -35 -18 2 -18 1 3 -10 12
-6 22 -17 22 -25 0 -19 -80 -154 -95 -159 -6 -3 -56 3 -111 12 -54 8 -123 19
-152 24 -30 5 -55 10 -57 12 -4 4 82 120 99 133 7 6 21 26 31 45 l18 35 -40
-35 c-22 -19 -43 -46 -47 -60 -3 -14 -24 -45 -46 -69 l-41 -44 -107 16 c-176
27 -483 55 -471 42 8 -8 88 -19 314 -45 227 -25 235 -27 235 -43 0 -13 -82
-89 -166 -154 -39 -30 -220 -103 -256 -103 -31 0 -163 245 -171 317 -2 18 -8
38 -14 45 -52 63 -94 475 -75 743 14 198 20 253 31 305 6 25 15 85 20 133 6
48 13 92 16 98 11 16 32 -8 39 -43 7 -36 52 -135 71 -158 7 -8 18 -32 25 -53
6 -20 19 -44 27 -53 8 -8 13 -17 10 -20 -4 -5 -118 67 -137 86 -3 3 -14 12
-25 20 -19 14 -19 14 -6 -2 7 -10 10 -18 6 -18 -4 0 -2 -7 5 -15 7 -8 16 -12
21 -9 5 3 9 1 9 -4 0 -6 36 -33 80 -61 64 -42 88 -64 120 -114 22 -34 40 -70
40 -79 0 -9 9 -20 21 -23 11 -4 18 -12 16 -18 -2 -7 3 -19 12 -27 23 -21 81
-102 81 -113 0 -4 -7 -15 -15 -23 -8 -9 -15 -13 -15 -9 0 3 -15 -2 -32 -12
-18 -9 -35 -17 -38 -18 -19 -2 -100 -38 -100 -45 0 -5 -25 -14 -55 -20 -34 -7
-55 -17 -55 -25 0 -11 15 -8 68 10 118 42 206 76 217 84 25 20 56 19 75 -2 11
-11 23 -17 27 -14 4 4 1 13 -5 19 -23 23 -12 35 56 65 85 39 112 45 130 30 12
-10 14 -8 8 9 -8 26 10 43 94 83 116 56 208 113 252 154 10 9 21 16 26 15 9
-3 84 52 95 70 5 7 19 12 31 10 13 -1 30 3 39 10 21 18 32 -4 42 -82 4 -33 11
-66 15 -75 5 -9 13 -32 18 -51 8 -29 10 -31 11 -10 1 32 -25 184 -40 229 -11
33 -10 36 22 63 91 77 103 88 93 88 -6 0 -31 -16 -55 -35 -46 -36 -69 -44 -69
-22 0 6 9 41 19 77 38 132 59 206 65 233 4 15 9 27 12 27 4 0 22 -17 41 -37z
m-2067 -821 c0 -13 23 -42 33 -42 3 0 21 -15 40 -32 19 -18 51 -48 71 -67 20
-18 35 -39 33 -45 -5 -13 -60 -12 -91 1 -127 55 -136 65 -157 171 -11 54 -11
64 1 72 17 10 70 -34 70 -58z m210 -192 c0 -5 -2 -10 -4 -10 -3 0 -8 5 -11 10
-3 6 -1 10 4 10 6 0 11 -4 11 -10z m1339 -496 c31 -7 26 -10 -39 -28 -30 -8
-113 -31 -185 -50 -149 -41 -158 -42 -127 -17 12 11 22 21 22 23 0 10 96 106
109 110 12 4 118 -15 220 -38z"/>
<path d="M1535 2900 c-3 -5 -1 -10 4 -10 6 0 11 5 11 10 0 6 -2 10 -4 10 -3 0
-8 -4 -11 -10z"/>
<path d="M1500 2795 c0 -8 2 -15 4 -15 2 0 6 7 10 15 3 8 1 15 -4 15 -6 0 -10
-7 -10 -15z"/>
<path d="M1490 2749 c0 -5 5 -7 10 -4 6 3 10 8 10 11 0 2 -4 4 -10 4 -5 0 -10
-5 -10 -11z"/>
<path d="M1476 2715 c-3 -8 -1 -15 3 -15 5 0 11 7 15 15 3 8 1 15 -3 15 -5 0
-11 -7 -15 -15z"/>
<path d="M1537 2100 c3 -11 14 -25 24 -31 15 -8 17 -6 12 8 -14 41 -46 60 -36
23z"/>
<path d="M1590 2040 c0 -5 5 -10 11 -10 5 0 7 5 4 10 -3 6 -8 10 -11 10 -2 0
-4 -4 -4 -10z"/>
<path d="M1760 1811 c0 -8 -6 -11 -16 -7 -14 5 -15 4 -4 -9 7 -8 19 -15 26
-15 8 0 14 -4 14 -9 0 -14 94 -71 116 -71 13 1 7 8 -21 25 -22 13 -47 29 -55
35 -8 6 -20 14 -26 18 -6 4 -16 16 -22 27 -7 12 -12 14 -12 6z"/>
<path d="M2545 1843 c-88 -236 -142 -363 -155 -363 -6 0 -10 -7 -10 -17 0 -15
-82 -175 -118 -230 -8 -13 -10 -23 -6 -23 10 1 52 65 84 130 12 25 34 60 48
79 13 18 25 41 26 50 1 9 11 35 23 57 12 23 31 63 42 90 10 27 34 87 53 134
19 47 38 97 42 113 11 45 -10 30 -29 -20z"/>
<path d="M2120 1581 c0 -5 14 -14 31 -20 43 -15 60 -14 29 2 -41 21 -60 27
-60 18z"/>
<path d="M2210 1545 c0 -9 131 -67 137 -61 3 3 -11 12 -31 20 -20 9 -52 23
-71 31 -19 8 -35 13 -35 10z"/>
<path d="M1890 1460 c6 -11 18 -20 26 -20 9 0 12 -5 8 -11 -3 -6 -2 -14 4 -18
6 -4 42 -36 80 -71 83 -79 166 -151 187 -163 8 -4 15 -14 15 -22 0 -9 6 -12
15 -9 21 9 19 34 -3 34 -11 0 -65 44 -122 98 -56 53 -109 98 -116 100 -8 2
-14 9 -14 16 0 13 -71 86 -83 86 -4 0 -3 -9 3 -20z"/>
<path d="M2462 1438 c3 -7 20 -17 39 -22 19 -5 36 -13 39 -16 3 -3 15 -7 28
-7 37 -3 25 16 -19 27 -23 6 -53 16 -66 21 -18 7 -24 6 -21 -3z"/>
<path d="M1440 1413 c-55 -18 -81 -44 -35 -35 14 2 25 9 25 14 0 5 4 7 9 4 12
-8 41 3 41 15 0 10 -16 11 -40 2z"/>
<path d="M2288 1114 c12 -8 22 -23 23 -32 0 -10 3 -12 6 -5 4 10 10 10 26 -2
12 -8 35 -15 52 -14 16 0 25 3 18 5 -7 3 -9 12 -6 20 4 11 -4 14 -33 14 -22 1
-50 7 -64 15 -34 19 -50 19 -22 -1z"/>
<path d="M1460 1110 c8 -5 24 -10 35 -10 17 0 17 2 5 10 -8 5 -24 10 -35 10
-17 0 -17 -2 -5 -10z"/>
<path d="M2460 1110 c0 -5 5 -10 10 -10 6 0 10 5 10 10 0 6 -4 10 -10 10 -5 0
-10 -4 -10 -10z"/>
<path d="M1520 1104 c0 -2 9 -8 20 -14 11 -6 20 -7 20 -2 0 6 -9 12 -20 15
-11 3 -20 3 -20 1z"/>
<path d="M2430 1099 c0 -5 5 -7 10 -4 6 3 10 8 10 11 0 2 -4 4 -10 4 -5 0 -10
-5 -10 -11z"/>
<path d="M1580 1079 c0 -7 11 -10 30 -7 16 2 32 1 34 -4 2 -5 3 -3 2 4 -3 17
-66 24 -66 7z"/>
<path d="M1660 1070 c0 -5 5 -10 10 -10 6 0 10 5 10 10 0 6 -4 10 -10 10 -5 0
-10 -4 -10 -10z"/>
<path d="M1690 1071 c0 -9 48 -21 79 -21 14 1 14 2 1 9 -23 13 -80 21 -80 12z"/>
<path d="M1798 1053 c7 -3 16 -2 19 1 4 3 -2 6 -13 5 -11 0 -14 -3 -6 -6z"/>
<path d="M1847 1053 c-3 -5 14 -9 37 -10 29 -2 37 0 26 7 -18 12 -57 13 -63 3z"/>
<path d="M2705 3731 c151 -107 206 -154 202 -172 -3 -12 3 -19 22 -24 14 -4
33 -13 42 -21 14 -12 20 -12 43 0 l28 14 -34 7 c-18 4 -56 29 -87 57 -29 27
-74 63 -100 80 -25 18 -68 49 -94 70 -27 21 -58 38 -70 38 -15 0 -2 -14 48
-49z"/>
<path d="M2736 3554 c-9 -24 3 -35 32 -28 36 9 52 24 25 24 -12 0 -25 5 -28
10 -9 15 -22 12 -29 -6z"/>
<path d="M2667 3544 c-3 -4 -44 -13 -89 -20 -150 -24 -190 -35 -177 -48 3 -3
43 3 89 13 47 10 108 22 135 25 65 9 85 15 85 27 0 10 -33 12 -43 3z"/>
<path d="M3120 3505 c0 -7 39 -26 63 -30 12 -3 32 -17 44 -32 12 -15 25 -24
29 -20 4 4 1 7 -7 7 -12 0 -12 2 0 9 10 6 -4 17 -52 40 -65 31 -77 35 -77 26z"/>
<path d="M3000 3497 c0 -2 8 -13 18 -24 106 -125 200 -260 217 -313 6 -19 25
-28 25 -12 0 5 -11 29 -25 53 -14 24 -32 59 -42 77 -9 17 -20 32 -25 32 -4 0
-8 7 -8 15 0 8 -19 35 -43 60 -24 25 -42 45 -40 45 3 0 -5 12 -16 26 -11 15
-18 30 -15 35 3 5 -6 9 -20 9 -14 0 -26 -2 -26 -3z"/>
<path d="M2762 3431 c1 -19 7 -27 15 -24 14 6 16 14 7 37 -10 26 -24 18 -22
-13z"/>
<path d="M3312 3404 c10 -10 20 -15 24 -12 3 4 -5 12 -18 18 -22 12 -22 12 -6
-6z"/>
<path d="M2770 3371 c0 -11 5 -23 10 -26 6 -3 10 -1 10 5 0 6 4 9 9 6 5 -4 7
3 4 14 -7 26 -33 26 -33 1z"/>
<path d="M3335 3346 c34 -45 52 -92 60 -158 4 -32 6 -61 5 -64 -1 -4 4 -11 12
-15 7 -5 8 -9 3 -9 -6 0 -12 -10 -13 -22 -2 -13 -4 -32 -6 -43 -2 -11 -4 -28
-5 -37 0 -9 -7 -23 -14 -30 -7 -7 -18 -31 -26 -53 -7 -22 -15 -47 -18 -55 -5
-12 -4 -13 9 -2 9 7 23 9 33 6 14 -6 16 -1 14 27 -1 19 4 48 10 64 22 54 33
136 27 210 -7 86 -10 97 -49 152 -16 23 -27 45 -24 50 3 4 -6 9 -19 9 l-23 2
24 -32z"/>
<path d="M3266 3122 c-3 -5 1 -15 9 -22 21 -17 27 -9 10 13 -7 10 -16 14 -19
9z"/>
<path d="M3310 3043 c0 -5 5 -15 10 -23 8 -12 10 -11 10 8 0 12 -4 22 -10 22
-5 0 -10 -3 -10 -7z"/>
<path d="M3394 2804 c3 -15 12 -34 21 -43 13 -13 14 -12 6 17 -6 18 -10 36
-10 39 0 4 -5 9 -11 11 -7 3 -9 -6 -6 -24z"/>
<path d="M3287 2775 c-21 -25 -33 -45 -27 -45 17 0 65 52 66 73 1 9 1 17 0 17
0 -1 -18 -21 -39 -45z"/>
<path d="M3410 2727 c0 -10 4 -16 9 -13 9 6 21 -49 21 -96 0 -18 5 -28 15 -28
8 0 15 9 15 20 0 26 -29 101 -46 120 -12 12 -14 12 -14 -3z"/>
<path d="M3250 2700 c0 -11 -4 -20 -9 -20 -5 0 -11 -10 -15 -23 -3 -13 -17
-36 -31 -51 -26 -28 -32 -46 -15 -46 6 0 10 5 10 12 0 7 10 22 23 33 33 30 68
115 46 115 -5 0 -9 -9 -9 -20z"/>
<path d="M246 2682 c-4 -13 -5 -26 -2 -29 10 -11 18 4 14 29 l-4 23 -8 -23z"/>
<path d="M3442 2548 c1 -26 7 -38 20 -41 24 -7 23 18 -2 51 l-21 26 3 -36z"/>
<path d="M3130 2512 c-14 -20 -37 -49 -51 -64 -14 -14 -46 -50 -70 -78 -24
-29 -50 -59 -57 -66 -11 -12 -11 -14 1 -14 8 0 27 17 43 37 16 21 35 44 44 53
8 9 31 36 50 59 19 24 43 52 53 63 10 11 17 26 15 34 -2 8 -13 -1 -28 -24z"/>
<path d="M3450 2476 c0 -2 7 -6 15 -10 8 -3 15 -1 15 4 0 6 -7 10 -15 10 -8 0
-15 -2 -15 -4z"/>
<path d="M3470 2430 c0 -5 5 -10 10 -10 6 0 10 5 10 10 0 6 -4 10 -10 10 -5 0
-10 -4 -10 -10z"/>
<path d="M3467 2393 c-13 -13 -7 -32 8 -27 8 4 15 12 15 20 0 15 -12 19 -23 7z"/>
<path d="M3470 2220 c0 -5 5 -10 10 -10 6 0 10 5 10 10 0 6 -4 10 -10 10 -5 0
-10 -4 -10 -10z"/>
<path d="M2845 2160 c-3 -5 -1 -10 4 -10 6 0 11 5 11 10 0 6 -2 10 -4 10 -3 0
-8 -4 -11 -10z"/>
<path d="M3415 2042 c-3 -3 -5 -16 -5 -29 0 -26 15 -31 24 -8 3 8 1 15 -4 15
-6 0 -10 5 -10 11 0 5 4 8 9 4 5 -3 12 -2 15 3 5 9 -20 12 -29 4z"/>
<path d="M3380 1914 c0 -14 -4 -23 -8 -20 -4 3 -13 -8 -19 -25 -21 -55 20 -24
50 39 15 30 14 32 -4 32 -14 0 -19 -7 -19 -26z"/>
<path d="M3338 1823 c-9 -2 -21 -17 -27 -34 -5 -16 -15 -29 -20 -29 -6 0 -11
-8 -11 -17 1 -16 2 -16 13 -2 7 9 18 14 26 11 10 -3 12 1 9 16 -4 15 0 22 18
26 13 4 24 13 24 21 0 15 -3 16 -32 8z"/>
<path d="M3213 1643 c-14 -5 -18 -33 -5 -33 10 1 42 26 42 34 0 7 -19 7 -37
-1z"/>
<path d="M3148 1573 c-8 -10 -18 -27 -22 -38 -6 -16 -1 -14 23 9 17 17 31 33
31 38 0 14 -16 9 -32 -9z"/>
<path d="M3285 1525 c0 -25 3 -45 8 -45 4 0 7 20 7 45 0 25 -3 45 -7 45 -5 0
-8 -20 -8 -45z"/>
<path d="M3087 1499 c-10 -11 -16 -23 -14 -25 6 -6 37 25 37 37 0 13 -3 11
-23 -12z"/>
<path d="M3014 1429 l-29 -31 33 16 c17 9 32 23 32 31 0 20 -2 19 -36 -16z"/>
<path d="M2971 1384 c0 -11 3 -14 6 -6 3 7 2 16 -1 19 -3 4 -6 -2 -5 -13z"/>
<path d="M1110 1340 c-23 -7 -22 -8 10 -8 19 0 49 4 65 8 29 7 28 8 -10 8 -22
0 -51 -4 -65 -8z"/>
<path d="M1040 1281 c0 -15 29 -45 36 -38 4 3 -3 16 -15 28 -12 13 -21 17 -21
10z"/>
<path d="M2781 1256 c-10 -12 -8 -13 9 -9 25 7 37 23 17 23 -8 0 -20 -6 -26
-14z"/>
<path d="M1092 1245 c2 -13 12 -20 31 -22 16 -1 25 2 21 8 -3 6 -11 8 -17 6
-7 -2 -18 3 -25 12 -11 14 -12 14 -10 -4z"/>
<path d="M1170 1210 c0 -5 5 -10 10 -10 6 0 10 5 10 10 0 6 -4 10 -10 10 -5 0
-10 -4 -10 -10z"/>
<path d="M1210 1190 c0 -6 7 -10 15 -10 8 0 15 2 15 4 0 2 -7 6 -15 10 -8 3
-15 1 -15 -4z"/>
<path d="M2651 1076 c-16 -19 -11 -29 8 -17 7 5 12 14 9 21 -3 9 -8 7 -17 -4z"/>
<path d="M450 1071 c0 -5 8 -12 17 -15 17 -7 270 -31 408 -40 129 -8 347 -26
383 -32 17 -2 32 -1 32 5 0 9 -60 18 -195 26 -44 3 -96 7 -115 9 -50 6 -268
24 -385 32 -66 4 -93 9 -80 15 15 6 9 8 -22 8 -24 1 -43 -3 -43 -8z"/>
<path d="M2605 1040 c-3 -5 -2 -10 4 -10 5 0 13 5 16 10 3 6 2 10 -4 10 -5 0
-13 -4 -16 -10z"/>
<path d="M2895 835 c-5 -2 -40 -6 -77 -10 -36 -3 -74 -12 -84 -19 -16 -13 -16
-14 3 -35 14 -15 36 -23 67 -26 26 -3 68 -11 94 -19 26 -8 66 -19 90 -25 26
-8 42 -18 42 -27 0 -9 -6 -14 -12 -11 -7 2 -26 -1 -43 -8 -16 -6 -36 -10 -42
-8 -7 3 -39 -3 -70 -13 -32 -10 -63 -17 -70 -15 -6 1 -37 -10 -69 -24 -57 -25
-57 -26 -38 -44 26 -25 74 -36 74 -17 0 8 -9 18 -21 21 -29 9 -6 35 32 35 15
0 30 4 34 10 3 5 12 7 20 3 8 -3 15 -1 15 3 0 5 21 10 48 12 26 2 51 7 57 13
5 5 26 9 47 9 48 0 88 18 88 40 0 16 -75 49 -170 75 -48 13 -110 38 -110 44 0
12 258 13 336 1 43 -6 109 -16 146 -21 75 -12 151 -46 156 -69 2 -10 -33 -47
-85 -90 l-87 -75 -246 -6 c-135 -3 -246 -7 -248 -8 -9 -4 11 -20 26 -20 437
-1 448 -1 500 15 28 9 52 21 52 26 0 6 -7 8 -15 4 -29 -11 -14 9 33 44 59 43
91 79 92 103 0 35 -52 74 -116 87 -32 6 -75 15 -94 20 -95 23 -318 39 -355 25z"/>
<path d="M2538 583 c-10 -3 -18 -10 -18 -17 0 -7 -11 -23 -25 -36 -14 -13 -23
-25 -21 -27 6 -6 88 42 94 55 6 18 -9 30 -30 25z"/>
<path d="M2404 467 c-73 -63 52 -97 235 -65 112 19 92 28 -65 28 -83 0 -154 3
-157 7 -4 3 3 17 15 30 28 30 7 30 -28 0z"/>
<path d="M1556 442 c-3 -5 4 -12 17 -16 36 -9 117 -7 117 4 0 6 -19 10 -42 10
-24 0 -53 3 -64 6 -12 3 -24 1 -28 -4z"/>
<path d="M1534 335 c-33 -6 -68 -15 -77 -18 -29 -11 -19 -27 16 -27 36 0 192
37 217 51 22 13 -84 9 -156 -6z"/>
</g>
</svg>
